<svg id="Layer_1" data-name="Layer 1" xmlns="http://www.w3.org/2000/svg" width="128" height="128" viewBox="0 0 128 128"><title>container-space-ship</title><polygon points="63.5 1.4 117.5 32.6 117.5 94.9 63.5 126 9.6 94.9 9.6 32.6 63.5 1.4"/><path d="M34,86.7a1,1,0,0,1-1.1-1V73.3H19.4a1,1,0,1,1,0-2h7.7V64.6a.9.9,0,0,1,1-1h4A32.5,32.5,0,0,1,63.4,38.7c.1-.1.2-.1.4,0A32.4,32.4,0,0,1,95,63.6h3.9a1,1,0,0,1,1.1,1v6.7h7.6a1,1,0,1,1,0,2H94.1V85.7a.9.9,0,0,1-1,1Zm-4.8-21v5.6H97.9V65.7ZM61.5,40.9A30.3,30.3,0,0,0,34.3,63.6H45.2ZM35,73.3V84.7H62.5V73.3ZM62.5,42.9,47.8,63.6H62.5Zm2.1-2.1V63.6H92.8A30.4,30.4,0,0,0,64.6,40.8Zm0,32.5V84.7h4.6V73.3Zm6.6,0V84.7H92.1V73.3Z" fill="#fff"/></svg>