<svg id="Layer_1" data-name="Layer 1" xmlns="http://www.w3.org/2000/svg" width="128" height="128" viewBox="0 0 128 128"><title>icecream-space-ship</title><polygon points="65.5 1 119.4 32.1 119.4 94.4 65.5 125.6 11.5 94.4 11.5 32.1 65.5 1"/><path d="M35,88.6l-2.4-3.4a1,1,0,0,1,.1-1.2l8.5-10.1H37a.9.9,0,0,1-1-1V65.5a.9.9,0,0,1,1-1h5.9a28.8,28.8,0,0,1-1.1-7.8,24.2,24.2,0,0,1,48.4,0,25.4,25.4,0,0,1-1.1,7.8H95a.9.9,0,0,1,1,1v7.4a.9.9,0,0,1-1,1H89.8L98.2,84a1.1,1.1,0,0,1,0,1.2l-2.4,3.4a1.1,1.1,0,0,1-1.3.3l-4.9-2.6H41.2l-4.9,2.6A1.1,1.1,0,0,1,35,88.6ZM50.5,73.9H43.8l-9,10.7,1.4,2,17.3-9.1ZM38,66.6v5.3H94V66.6Zm7.1-2.1H86.9a22.2,22.2,0,1,0-43-7.8A20,20,0,0,0,45.1,64.5Zm9.8,14.6-9.7,5.2H59.1Zm-1.7-5.2,8.6,10.4h7.3l8.6-10.4ZM76,79.1l-4.2,5.2H85.7Zm11.1-5.2H80.4l-3.1,3.6,17.4,9.1,1.5-1.9Z" fill="#fff"/></svg>