<svg xmlns="http://www.w3.org/2000/svg">
  <symbol id="space-ship" viewBox="0 0 128 128">
  <path d="M63.5 1.4l54 31.2v62.3l-54 31.1L9.6 94.9V32.6L63.5 1.4z"/>
  <path fill="#fff" d="M34 86.7a1 1 0 0 1-1.1-1V73.3H19.4a1 1 0 1 1 0-2h7.7v-6.7a.9.9 0 0 1 1-1h4a32.5 32.5 0 0 1 31.3-24.9c.1-.1.2-.1.4 0A32.4 32.4 0 0 1 95 63.6h3.9a1 1 0 0 1 1.1 1v6.7h7.6a1 1 0 1 1 0 2H94.1v12.4a.9.9 0 0 1-1 1zm-4.8-21v5.6h68.7v-5.6zm32.3-24.8a30.3 30.3 0 0 0-27.2 22.7h10.9zM35 73.3v11.4h27.5V73.3zm27.5-30.4L47.8 63.6h14.7zm2.1-2.1v22.8h28.2a30.4 30.4 0 0 0-28.2-22.8zm0 32.5v11.4h4.6V73.3zm6.6 0v11.4h20.9V73.3z"/>
</symbol>
<symbol id="icecream-ship" viewBox="0 0 128 128">
  <path d="M65.5 1l53.9 31.1v62.3l-53.9 31.2-54-31.2V32.1L65.5 1z"/>
  <path fill="#fff" d="M35 88.6l-2.4-3.4a1 1 0 0 1 .1-1.2l8.5-10.1H37a.9.9 0 0 1-1-1v-7.4a.9.9 0 0 1 1-1h5.9a28.8 28.8 0 0 1-1.1-7.8 24.2 24.2 0 0 1 48.4 0 25.4 25.4 0 0 1-1.1 7.8H95a.9.9 0 0 1 1 1v7.4a.9.9 0 0 1-1 1h-5.2L98.2 84a1.1 1.1 0 0 1 0 1.2l-2.4 3.4a1.1 1.1 0 0 1-1.3.3l-4.9-2.6H41.2l-4.9 2.6a1.1 1.1 0 0 1-1.3-.3zm15.5-14.7h-6.7l-9 10.7 1.4 2 17.3-9.1zM38 66.6v5.3h56v-5.3zm7.1-2.1h41.8a22.2 22.2 0 1 0-43-7.8 20 20 0 0 0 1.2 7.8zm9.8 14.6l-9.7 5.2h13.9zm-1.7-5.2l8.6 10.4h7.3l8.6-10.4zM76 79.1l-4.2 5.2h13.9zm11.1-5.2h-6.7l-3.1 3.6 17.4 9.1 1.5-1.9z"/>
</symbol>
<symbol id="sled-ship" viewBox="0 0 128 128">
  <path d="M64.1 4l51.8 29.9v59.8l-51.8 29.9-51.8-29.9V33.9L64.1 4z"/>
  <path fill="#fff" d="M34.1 85.9a1 1 0 1 1 0-2H39v-6.2h-4.9a.9.9 0 0 1-1-.9V57.4a.9.9 0 0 1 1-1h6.5c.4-13.9 10.9-21.6 23.5-21.6s23.1 7.7 23.6 21.6h6.5a.9.9 0 0 1 1 1v19.4a.9.9 0 0 1-1 .9h-4.9v6.2h4.9a1 1 0 1 1 0 2zm1-27.5v17.4h58.1V58.4zm5.8 19.3v6.2h6.3v-6.2zm1.6-21.3h43.2c-.5-12.6-10.1-19.6-21.6-19.6s-21.1 7-21.6 19.6zm6.7 21.3v6.2H59v-6.2zm11.8 0v6.2h6.3v-6.2zm26.6-6.6h-24a1 1 0 0 1 0-2h24a1 1 0 0 1 0 2zm-18.4 6.6v6.2h9.9v-6.2zm11.8 0v6.2h6.3v-6.2z"/>
</symbol>
</svg>
