<svg id="Layer_1" data-name="Layer 1" xmlns="http://www.w3.org/2000/svg" width="128" height="128" viewBox="0 0 128 128"><title>sled-space-ship</title><polygon points="64.1 4 115.9 33.9 115.9 93.7 64.1 123.6 12.3 93.7 12.3 33.9 64.1 4"/><path d="M34.1,85.9a1,1,0,1,1,0-2H39V77.7H34.1a.9.9,0,0,1-1-.9V57.4a.9.9,0,0,1,1-1h6.5C41,42.5,51.5,34.8,64.1,34.8s23.1,7.7,23.6,21.6h6.5a.9.9,0,0,1,1,1V76.8a.9.9,0,0,1-1,.9H89.3v6.2h4.9a1,1,0,1,1,0,2Zm1-27.5V75.8H93.2V58.4Zm5.8,19.3v6.2h6.3V77.7Zm1.6-21.3H85.7c-.5-12.6-10.1-19.6-21.6-19.6S43,43.8,42.5,56.4Zm6.7,21.3v6.2H59V77.7Zm11.8,0v6.2h6.3V77.7Zm26.6-6.6h-24a1,1,0,0,1,0-2h24a1,1,0,0,1,0,2ZM69.2,77.7v6.2h9.9V77.7Zm11.8,0v6.2h6.3V77.7Z" fill="#fff"/></svg>